<svg xmlns="http://www.w3.org/2000/svg" width="48" height="48" viewBox="0 0 256 256" fill="none" id="my-svg">
  <defs><pattern id="a" patternUnits="userSpaceOnUse" width="80" height="80" patternTransform="scale(3.19) rotate(0)"><rect x="0" y="0" width="100%" height="100%" fill="hsla(0,0%,100%,1)"/><path d="M-20.133 4.568C-13.178 4.932-6.452 7.376 0 10c6.452 2.624 13.036 5.072 20 5 6.967-.072 13.56-2.341 20-5 6.44-2.659 13.033-4.928 20-5 6.964-.072 13.548 2.376 20 5s13.178 5.068 20.133 5.432" stroke-width="20" stroke="hsla(189, 100%, 48%, 1)" fill="none"/><path d="M-20.133 24.568C-13.178 24.932-6.452 27.376 0 30c6.452 2.624 13.036 5.072 20 5 6.967-.072 13.56-2.341 20-5 6.44-2.659 13.033-4.928 20-5 6.964-.072 13.548 2.376 20 5s13.178 5.068 20.133 5.432" stroke-width="20" stroke="hsla(208, 100%, 48%, 1)" fill="none"/><path d="M-20.133 44.568C-13.178 44.932-6.452 47.376 0 50c6.452 2.624 13.036 5.072 20 5 6.967-.072 13.56-2.341 20-5 6.44-2.659 13.033-4.928 20-5 6.964-.072 13.548 2.376 20 5s13.178 5.068 20.133 5.432" stroke-width="20" stroke="hsla(279, 100%, 50%, 1)" fill="none"/><path d="M-20.133 64.568C-13.178 64.932-6.452 67.376 0 70c6.452 2.624 13.036 5.072 20 5 6.967-.072 13.56-2.341 20-5 6.44-2.659 13.033-4.928 20-5 6.964-.072 13.548 2.376 20 5s13.178 5.068 20.133 5.432" stroke-width="20" stroke="hsla(265, 100%, 50%, 1)" fill="none"/></pattern>
    <linearGradient id="gradient1">
      <stop class="stop1" offset="0%" stop-color="#8f66ff"/>
      <stop class="stop2" offset="100%" stop-color="#3d12ff"/>
    </linearGradient>
  </defs>
  
  <path d="M32 79.3759C32 70.1934 37.9033 62.1548 46.904 60.3367C62.1851 57.25 89.2171 53.333 128 53.333C166.783 53.333 193.815 57.25 209.096 60.3367C218.097 62.1548 224 70.1934 224 79.3759V176.623C224 185.806 218.097 193.845 209.096 195.663C193.815 198.749 166.783 202.666 128 202.666C89.2172 202.666 62.1852 198.749 46.904 195.663C37.9033 193.845 32 185.806 32 176.623V79.3759Z M106.667 95.9997L160 128L106.667 160V95.9997Z" stroke="url(#a)" stroke-width="20" stroke-linecap="round" stroke-linejoin="round" id="my-path" transform="translate(0,0) scale(1)"/>
</svg>